<svg width="720" height="420" viewBox="0 0 720 420" fill="none" xmlns="http://www.w3.org/2000/svg">
<path d="M51.1093 291.458C58.22 291.458 64.8801 292.81 71.0896 295.519C77.299 298.228 82.7117 301.888 87.3278 306.504C91.9439 311.12 95.6085 316.56 98.3126 322.824C101.021 329.088 102.373 335.721 102.373 342.727V384.126C102.373 386.889 101.417 389.22 99.5053 391.132C97.5934 393.044 95.258 394 92.4993 394C89.7405 394 87.3779 393.044 85.4158 391.132C83.4492 389.22 82.4704 386.889 82.4704 384.126V365.02H51.1047V364.86C50.7861 364.97 50.2034 365.02 49.3521 365.02C45.8513 365.02 42.5053 365.552 39.3232 366.613C36.1366 367.674 33.2458 369.162 30.6464 371.07C28.0425 372.982 25.7891 375.262 23.8816 377.916C21.9697 380.57 20.5402 383.488 19.5842 386.675C19.4795 386.784 19.4249 386.889 19.4249 386.994C19.4249 387.099 19.3703 387.208 19.2656 387.312C18.6282 389.329 17.4583 390.95 15.7648 392.17C14.0668 393.39 12.1047 394 9.87405 394C7.11078 394 4.77997 393.044 2.86798 391.132C0.955994 389.22 0 386.889 0 384.126V342.727C0 336.467 1.0607 330.572 3.18665 325.055C5.73597 318.262 9.55539 312.212 14.6495 306.904C19.4249 302.129 24.9196 298.36 31.129 295.601C37.3384 292.842 43.9985 291.463 51.1093 291.463V291.458ZM82.475 345.117V342.727C82.475 337.209 81.1457 332.115 78.4962 327.44C78.4962 327.335 78.4689 327.258 78.4188 327.203C78.3642 327.153 78.3414 327.071 78.3414 326.966C77.9181 326.329 77.4902 325.692 77.0668 325.055C76.6434 324.417 76.2155 323.834 75.7921 323.302C72.9241 319.587 69.3688 316.669 65.126 314.543C60.8786 312.422 56.2079 311.356 51.1138 311.356C46.0197 311.356 41.3217 312.499 37.0243 314.78C32.7269 317.065 29.1442 320.061 26.2762 323.775C24.2595 326.429 22.6935 329.347 21.5782 332.534C20.4628 335.721 19.9074 339.117 19.9074 342.722V354.504C24.0455 351.536 28.6115 349.223 33.6009 347.58C38.5903 345.936 43.8437 345.112 49.3657 345.112H82.4841L82.475 345.117Z" fill="white"/>
<path d="M173.467 294.563C175.325 296.42 176.253 298.678 176.253 301.327C176.253 303.977 175.27 306.449 173.308 308.411C171.341 310.378 168.983 311.356 166.225 311.356H165.428C161.29 311.57 157.388 312.526 153.724 314.224C150.064 315.922 146.877 318.18 144.173 320.989C141.464 323.802 139.343 327.066 137.804 330.781C136.266 334.5 135.496 338.479 135.496 342.722V384.121C135.496 386.884 134.513 389.215 132.551 391.127C130.584 393.039 128.226 393.995 125.467 393.995C122.709 393.995 120.373 393.039 118.461 391.127C116.549 389.215 115.593 386.884 115.593 384.121V342.722C115.593 335.716 116.891 329.165 119.495 323.06C122.094 316.956 125.627 311.598 130.083 306.977C134.54 302.361 139.794 298.673 145.848 295.91C151.898 293.151 158.372 291.667 165.273 291.453H166.707C169.361 291.667 171.615 292.701 173.472 294.558L173.467 294.563Z" fill="white"/>
<path d="M235.006 291.458C242.117 291.458 248.777 292.81 254.986 295.519C261.196 298.227 266.608 301.887 271.225 306.503C275.841 311.12 279.505 316.56 282.209 322.824C284.918 329.088 286.27 335.72 286.27 342.727V384.126C286.27 386.889 285.314 389.22 283.402 391.132C281.49 393.044 279.155 394 276.396 394C273.637 394 271.275 393.044 269.313 391.132C267.346 389.22 266.367 386.889 266.367 384.126V365.019H235.001V364.86C234.683 364.969 234.1 365.019 233.249 365.019C229.748 365.019 226.402 365.552 223.22 366.613C220.033 367.673 217.143 369.162 214.543 371.069C211.939 372.981 209.686 375.262 207.778 377.916C205.866 380.57 204.437 383.488 203.481 386.675C203.376 386.784 203.322 386.889 203.322 386.994C203.322 387.098 203.267 387.208 203.162 387.312C202.525 389.329 201.355 390.95 199.662 392.17C197.964 393.39 196.001 394 193.771 394C191.008 394 188.677 393.044 186.765 391.132C184.853 389.22 183.897 386.889 183.897 384.126V342.727C183.897 336.467 184.957 330.572 187.083 325.054C189.633 318.262 193.452 312.212 198.546 306.904C203.322 302.129 208.816 298.359 215.026 295.601C221.235 292.842 227.895 291.463 235.006 291.463V291.458ZM266.372 345.117V342.727C266.372 337.209 265.042 332.115 262.393 327.44C262.393 327.335 262.366 327.258 262.316 327.203C262.261 327.153 262.238 327.071 262.238 326.966C261.815 326.329 261.387 325.692 260.964 325.054C260.54 324.417 260.112 323.834 259.689 323.302C256.821 319.587 253.266 316.669 249.023 314.543C244.775 312.422 240.105 311.356 235.011 311.356C229.917 311.356 225.219 312.499 220.921 314.78C216.624 317.065 213.041 320.06 210.173 323.775C208.156 326.429 206.59 329.347 205.475 332.534C204.36 335.72 203.804 339.117 203.804 342.722V354.503C207.942 351.535 212.508 349.223 217.498 347.579C222.487 345.936 227.741 345.112 233.263 345.112H266.381L266.372 345.117Z" fill="white"/>
<path d="M354.523 394.041C354.469 394.041 354.414 394.041 354.355 394.041C340.648 393.799 327.783 388.387 318.127 378.799C308.399 369.144 303.041 356.37 303.041 342.827C303.041 329.283 308.399 316.51 318.127 306.854C327.783 297.271 340.648 291.859 354.35 291.613C356.991 291.572 359.572 292.601 361.448 294.444C363.319 296.283 364.393 298.846 364.393 301.469C364.393 306.804 360.041 311.224 354.692 311.315C337.102 311.629 322.784 325.764 322.784 342.822C322.784 359.88 337.102 374.015 354.696 374.329C360.045 374.425 364.398 378.84 364.398 384.176C364.398 386.798 363.323 389.361 361.452 391.2C359.618 393.003 357.1 394.032 354.528 394.032L354.523 394.041Z" fill="white"/>
<path d="M424.156 292.414C432.328 291.035 440.367 291.617 448.279 294.167C456.187 296.716 463.061 300.959 468.897 306.904C473.672 311.68 477.36 317.229 479.963 323.543C482.563 329.862 483.81 336.417 483.706 343.205C483.706 348.617 482.831 353.898 481.079 359.047C479.326 364.195 476.859 368.944 473.677 373.296C468.473 380.302 461.895 385.637 453.933 389.297C445.971 392.957 437.695 394.523 429.096 393.995C424.639 393.676 420.282 392.775 416.039 391.286C411.792 389.802 407.841 387.84 404.176 385.396C400.516 382.956 397.197 380.088 394.224 376.796C391.252 373.51 388.757 369.845 386.74 365.812C384.828 361.887 383.422 357.799 382.52 353.552C381.619 349.309 381.273 345.035 381.487 340.733C381.696 336.435 382.416 332.188 383.636 327.995C384.856 323.802 386.631 319.851 388.971 316.132C389.713 314.752 390.614 313.373 391.68 311.994H391.839C395.763 306.686 400.543 302.388 406.17 299.097C411.797 295.81 417.792 293.579 424.161 292.409L424.156 292.414ZM458.549 360.717C460.78 357.431 462.341 353.871 463.247 350.051C464.149 346.232 464.335 342.358 463.803 338.429C463.165 334.505 461.995 331.054 460.302 328.082C458.176 324.262 455.417 320.971 452.021 318.212C448.625 315.453 444.801 313.541 440.558 312.481C436.42 311.315 432.173 311.047 427.821 311.684C423.469 312.321 419.435 313.81 415.721 316.141C410.945 319.223 407.226 323.306 404.577 328.4C401.923 333.494 400.757 338.907 401.076 344.639C401.285 349.095 402.401 353.238 404.417 357.057C404.945 358.013 405.451 358.997 405.929 360.003C406.407 361.013 406.962 361.992 407.599 362.948C406.643 361.355 405.742 359.711 404.891 358.013C406.589 361.095 408.765 363.827 411.419 366.212C414.073 368.602 417.045 370.537 420.337 372.025C423.733 373.514 427.288 374.334 431.003 374.493C434.718 374.652 438.328 374.151 441.828 372.981C445.224 371.921 448.357 370.327 451.225 368.206C454.092 366.085 456.533 363.59 458.549 360.722V360.717Z" fill="white"/>
<path d="M590.222 393.995C587.458 393.995 585.15 393.039 583.297 391.127C581.44 389.215 580.511 386.884 580.511 384.121V325.209L567.806 337.947C565.261 340.496 562.379 342.458 559.147 343.837C555.92 345.217 552.501 345.909 548.904 345.909C545.308 345.909 541.862 345.221 538.58 343.837C535.297 342.458 532.439 340.491 530.003 337.947L517.138 325.05V384.121C517.138 386.884 516.173 389.215 514.247 391.127C512.322 393.039 509.968 393.995 507.187 393.995C504.405 393.995 502.047 393.039 500.121 391.127C498.196 389.215 497.235 386.884 497.235 384.121V301.487C497.235 298.728 498.191 296.393 500.103 294.481C502.015 292.569 504.346 291.613 507.109 291.613C509.126 291.613 510.983 292.195 512.681 293.365V293.206L513.956 294.321L542.299 322.824C544.211 324.522 546.382 325.373 548.827 325.373C551.272 325.373 553.284 324.526 555.196 322.824L584.49 293.37H584.649C586.348 292.205 588.205 291.617 590.222 291.617C592.98 291.617 595.316 292.573 597.228 294.485C599.14 296.397 600.096 298.733 600.096 301.491V384.126C600.096 386.889 599.14 389.22 597.228 391.132C595.316 393.044 592.98 394 590.222 394V393.995Z" fill="white"/>
<path d="M697.502 300.535C701.117 302.98 704.331 305.816 707.149 309.053C709.967 312.294 712.329 315.795 714.246 319.56C716.158 323.329 717.624 327.308 718.63 331.5C719.64 335.693 720.091 339.913 719.986 344.161C719.772 349.573 718.766 354.854 716.959 360.003C715.152 365.151 712.607 369.904 709.316 374.252C705.178 379.664 700.134 384.044 694.188 387.385C688.243 390.727 681.929 392.825 675.241 393.677C668.449 394.523 661.789 394.018 655.261 392.165C648.733 390.308 642.76 387.362 637.348 383.329V383.17V409.441C637.348 412.2 636.382 414.535 634.457 416.447C632.531 418.359 630.178 419.311 627.396 419.311C624.615 419.311 622.257 418.355 620.335 416.447C618.41 414.535 617.449 412.2 617.449 409.441V342.089C617.449 341.242 617.472 340.419 617.527 339.622C617.577 338.825 617.659 338.006 617.763 337.154C618.187 332.802 619.225 328.582 620.873 324.499C622.521 320.415 624.596 316.619 627.091 313.114C629.586 309.608 632.513 306.453 635.864 303.64C639.214 300.831 642.851 298.464 646.789 296.557C654.974 292.737 663.587 291.171 672.624 291.859C681.66 292.551 689.955 295.441 697.502 300.535ZM700.083 344.957C700.612 337.528 698.759 330.84 694.516 324.895C692.395 321.818 689.823 319.218 686.804 317.092C683.786 314.971 680.527 313.432 677.026 312.476C669.815 310.459 662.873 310.937 656.194 313.91C657.046 313.487 657.892 313.091 658.744 312.717C659.595 312.349 660.446 312.003 661.297 311.684C660.237 312.107 659.199 312.535 658.193 312.959C657.182 313.382 656.203 313.86 655.247 314.393C651.319 316.091 647.923 318.64 645.059 322.036C641.345 326.388 638.927 331.378 637.816 337.004C636.701 342.631 637.102 348.148 639.009 353.566C640.493 357.599 642.724 361.209 645.697 364.391C648.665 367.573 652.17 370.073 656.203 371.875C660.232 373.573 664.425 374.425 668.768 374.425C673.111 374.425 677.299 373.523 681.328 371.716C683.021 370.869 684.637 369.963 686.176 369.007C687.715 368.051 689.172 366.936 690.551 365.666C693.305 362.907 695.531 359.748 697.225 356.192C698.918 352.637 699.87 348.895 700.083 344.966V344.957Z" fill="white"/>
<path d="M355.352 353.374C361.102 353.374 365.763 348.713 365.763 342.963C365.763 337.213 361.102 332.552 355.352 332.552C349.602 332.552 344.941 337.213 344.941 342.963C344.941 348.713 349.602 353.374 355.352 353.374Z" fill="#4361EE"/>
<path d="M432.569 353.374C438.319 353.374 442.98 348.713 442.98 342.963C442.98 337.213 438.319 332.552 432.569 332.552C426.819 332.552 422.158 337.213 422.158 342.963C422.158 348.713 426.819 353.374 432.569 353.374Z" fill="#F72585"/>
<path d="M668.231 353.374C673.981 353.374 678.642 348.713 678.642 342.963C678.642 337.213 673.981 332.552 668.231 332.552C662.481 332.552 657.82 337.213 657.82 342.963C657.82 348.713 662.481 353.374 668.231 353.374Z" fill="#7209B7"/>
<path d="M401.517 206.948L305.34 128.72L401.517 50.4879L403.816 53.3149L311.112 128.72L403.816 204.125L401.517 206.948Z" fill="white"/>
<path d="M298.53 160.227C280.935 159.913 266.618 145.778 266.618 128.72C266.618 111.662 280.935 97.5274 298.525 97.2133C303.874 97.1177 308.226 92.7019 308.226 87.3665C308.226 84.7444 307.152 82.1814 305.281 80.3423C303.405 78.4986 300.824 77.4697 298.184 77.5107C284.481 77.752 271.616 83.1647 261.961 92.752C252.232 102.408 246.874 115.181 246.874 128.725C246.874 142.268 252.232 155.042 261.961 164.697C271.616 174.28 284.481 179.693 298.188 179.939C298.243 179.939 298.297 179.939 298.357 179.939C300.929 179.939 303.446 178.91 305.281 177.107C307.152 175.268 308.226 172.705 308.226 170.083C308.226 164.747 303.874 160.327 298.525 160.236L298.53 160.227Z" fill="#4361EE"/>
<path d="M317.847 132.706C320.048 127.394 317.525 121.304 312.213 119.104C306.901 116.903 300.81 119.426 298.61 124.738C296.409 130.05 298.932 136.141 304.244 138.341C309.557 140.541 315.647 138.019 317.847 132.706Z" fill="#4361EE"/>
<path d="M412.366 83.4105C429.961 83.0964 444.278 68.9614 444.278 51.9037C444.278 34.846 429.961 20.711 412.37 20.3969C407.021 20.3013 402.669 15.8855 402.669 10.5501C402.669 7.92799 403.744 5.36502 405.615 3.52587C407.49 1.68217 410.071 0.653338 412.712 0.694309C426.414 0.935584 439.279 6.34833 448.935 15.9356C458.663 25.5911 464.021 38.365 464.021 51.9083C464.021 65.4515 458.663 78.2254 448.935 87.8809C439.279 97.4636 426.414 102.876 412.707 103.122C412.652 103.122 412.598 103.122 412.539 103.122C409.967 103.122 407.449 102.093 405.615 100.291C403.744 98.4515 402.669 95.8885 402.669 93.2663C402.669 87.931 407.021 83.5107 412.37 83.4196L412.366 83.4105Z" fill="#F72585"/>
<path d="M406.654 61.5231C411.966 59.3227 414.489 53.2324 412.288 47.9202C410.088 42.6079 403.998 40.0852 398.685 42.2857C393.373 44.4861 390.85 50.5763 393.051 55.8886C395.251 61.2009 401.342 63.7235 406.654 61.5231Z" fill="#F72585"/>
<path d="M412.366 237.043C429.961 236.729 444.278 222.594 444.278 205.536C444.278 188.479 429.961 174.344 412.37 174.03C407.021 173.934 402.669 169.518 402.669 164.183C402.669 161.561 403.744 158.998 405.615 157.159C407.49 155.315 410.071 154.286 412.712 154.327C426.414 154.568 439.279 159.981 448.935 169.568C458.663 179.224 464.021 191.998 464.021 205.541C464.021 219.084 458.663 231.858 448.935 241.514C439.279 251.096 426.414 256.509 412.707 256.755C412.653 256.755 412.598 256.755 412.539 256.755C409.967 256.755 407.449 255.726 405.615 253.923C403.744 252.084 402.669 249.521 402.669 246.899C402.669 241.564 407.021 237.143 412.37 237.052L412.366 237.043Z" fill="#7209B7"/>
<path d="M406.653 215.156C411.965 212.956 414.488 206.866 412.288 201.553C410.087 196.241 403.997 193.718 398.685 195.919C393.372 198.119 390.85 204.209 393.05 209.522C395.251 214.834 401.341 217.357 406.653 215.156Z" fill="#7209B7"/>
</svg>
